<svg width="41" height="41" viewBox="0 0 41 41" fill="none" xmlns="http://www.w3.org/2000/svg">
<path d="M0.147461 0.147461H40.9999V40.9999H4.14747C1.93833 40.9999 0.147461 39.2091 0.147461 36.9999V0.147461Z" fill="#EE4D2D"/>
<mask id="mask0" style="mask-type:alpha" maskUnits="userSpaceOnUse" x="11" y="11" width="19" height="19">
<rect x="11.8198" y="29.3276" width="17.5082" height="17.5082" transform="rotate(-90 11.8198 29.3276)" fill="#EE4D2D"/>
</mask>
<g mask="url(#mask0)">
<path d="M24.2436 20.5519C24.6341 20.9425 25.2673 20.9425 25.6578 20.5519C26.0483 20.1614 26.0483 19.5282 25.6578 19.1377L24.2436 20.5519ZM20.5736 15.4678L21.2807 14.7607L20.5736 14.0536L19.8665 14.7607L20.5736 15.4678ZM15.4895 19.1377C15.099 19.5282 15.099 20.1614 15.4895 20.5519C15.88 20.9425 16.5132 20.9425 16.9037 20.5519L15.4895 19.1377ZM19.5736 26.4104C19.5736 26.9627 20.0213 27.4104 20.5736 27.4104C21.1259 27.4104 21.5736 26.9627 21.5736 26.4104L19.5736 26.4104ZM25.6578 19.1377L21.2807 14.7607L19.8665 16.1749L24.2436 20.5519L25.6578 19.1377ZM19.8665 14.7607L15.4895 19.1377L16.9037 20.5519L21.2807 16.1749L19.8665 14.7607ZM19.5736 15.4678L19.5736 26.4104L21.5736 26.4104L21.5736 15.4678L19.5736 15.4678Z" fill="white"/>
</g>
</svg>
