<?xml version="1.0" standalone="no"?>
<!DOCTYPE svg PUBLIC "-//W3C//DTD SVG 20010904//EN"
 "http://www.w3.org/TR/2001/REC-SVG-20010904/DTD/svg10.dtd">
<svg version="1.0" xmlns="http://www.w3.org/2000/svg"
 width="1920.000000pt" height="80.000000pt" viewBox="0 0 1920.000000 80.000000"
 preserveAspectRatio="xMidYMid meet">
<metadata>
Created by potrace 1.16, written by Peter Selinger 2001-2019
</metadata>
<g transform="translate(0.000000,80.000000) scale(0.100000,-0.100000)"
fill="#000000" stroke="none">
<path d="M9740 650 c-15 -29 -50 -130 -50 -145 0 -7 18 -20 40 -29 25 -10 44
-26 50 -40 13 -34 25 -39 57 -23 20 10 35 12 52 5 14 -5 27 -5 31 -1 3 4 3 44
0 88 -7 82 -12 90 -14 20 -1 -34 -4 -40 -25 -43 -15 -3 -30 3 -37 13 -8 11
-20 15 -33 10 -26 -8 -39 18 -21 41 10 11 10 18 2 26 -7 7 -12 19 -12 28 0 19
33 53 43 45 4 -3 4 0 -1 5 -4 5 -22 12 -39 16 -25 5 -33 2 -43 -16z"/>
<path d="M6809 653 c-1 -5 0 -16 1 -27 1 -12 -2 -16 -11 -11 -9 6 -10 1 -5
-19 3 -14 3 -26 -2 -26 -4 0 -12 -19 -18 -42 -7 -34 -14 -44 -33 -46 -23 -4
-23 -2 -18 55 3 33 9 72 12 86 4 16 3 27 -3 27 -13 0 -36 -29 -29 -37 4 -3 3
-11 -3 -17 -5 -7 -5 -27 -1 -49 5 -20 5 -35 1 -32 -4 3 -10 -2 -13 -10 -10
-23 -74 -30 -114 -11 -22 10 -32 21 -27 29 4 6 3 8 -1 4 -14 -12 -14 -35 -2
-45 7 -5 35 -16 62 -25 59 -18 296 -21 307 -4 5 8 14 7 33 -1 32 -15 75 -16
75 -2 0 7 6 7 19 0 26 -13 68 -13 73 1 3 9 10 9 26 0 13 -7 35 -11 50 -9 26 3
28 8 45 93 18 95 17 115 -7 115 -10 0 -13 -6 -9 -17 4 -11 2 -15 -3 -10 -5 5
-15 -23 -24 -65 -14 -67 -17 -73 -40 -73 -22 0 -25 4 -22 33 2 28 -1 32 -23
32 -19 0 -26 -7 -33 -32 -6 -26 -14 -33 -33 -33 -18 0 -23 5 -22 20 1 11 3 36
4 55 1 19 6 42 10 51 5 10 3 24 -6 35 -14 18 -14 18 -15 -3 0 -13 -4 -23 -9
-23 -5 0 -12 -21 -16 -47 -16 -106 -46 -123 -86 -48 -26 48 -37 44 -41 -18 -3
-32 -5 -34 -30 -26 -14 4 -30 4 -34 1 -5 -4 -3 0 3 8 7 9 15 43 18 75 3 33 8
67 11 77 3 10 1 18 -5 18 -6 0 -12 -3 -12 -7z"/>
<path d="M8487 653 c-14 -4 -17 -11 -13 -26 4 -12 9 -38 12 -57 4 -27 3 -31
-5 -20 -9 13 -11 12 -12 -5 -1 -11 -1 -24 0 -28 1 -5 -3 -6 -8 -3 -13 8 -28
-15 -27 -44 1 -21 6 -26 35 -28 47 -5 119 14 163 44 l37 24 -5 -30 c-8 -39 10
-46 75 -30 48 11 50 13 61 61 7 27 19 53 29 59 9 5 12 10 8 10 -4 0 4 16 19
35 14 19 24 35 21 35 -13 0 -80 -104 -86 -133 -6 -26 -12 -32 -31 -32 -20 0
-25 5 -23 25 2 36 -17 91 -29 84 -6 -4 -8 2 -3 16 5 17 4 21 -6 15 -9 -6 -11
-4 -6 8 7 20 -5 29 -28 21 -14 -6 -14 -8 -1 -23 22 -25 10 -84 -24 -116 -22
-21 -41 -28 -90 -32 l-62 -6 6 54 c4 30 9 71 12 92 3 20 4 36 2 36 -1 -1 -11
-3 -21 -6z"/>
<path d="M10995 650 c-170 -3 -316 -9 -322 -13 -10 -6 -13 -67 -13 -246 l0
-239 28 -11 c20 -9 276 -11 969 -9 909 3 942 4 962 22 20 18 21 28 21 241 0
175 -3 225 -14 241 -14 18 -33 19 -668 19 -359 1 -792 -2 -963 -5z m785 -100
c0 -27 3 -30 30 -30 27 0 30 3 30 30 0 23 4 30 20 30 18 0 20 -7 20 -85 0 -78
-2 -85 -20 -85 -16 0 -20 7 -20 35 0 32 -2 35 -30 35 -28 0 -30 -3 -30 -35 0
-28 -4 -35 -20 -35 -18 0 -20 7 -20 85 0 78 2 85 20 85 16 0 20 -7 20 -30z
m308 14 c41 -29 22 -89 -31 -99 -26 -5 -33 -11 -33 -28 1 -15 -6 -23 -21 -25
-22 -3 -23 -1 -23 82 l0 86 43 0 c23 0 53 -7 65 -16z m-754 -16 c21 -30 20
-44 -5 -69 l-21 -21 23 -24 22 -24 -23 0 c-13 0 -34 10 -47 22 l-23 21 0 -21
c0 -15 -6 -22 -20 -22 -18 0 -20 7 -20 80 l0 80 49 0 c40 0 53 -4 65 -22z"/>
<path d="M13724 650 c-124 -3 -176 -9 -188 -19 -14 -12 -16 -41 -16 -235 0
-176 3 -226 14 -242 14 -18 34 -19 643 -22 345 -2 778 0 962 3 299 7 335 9
351 25 16 16 17 38 13 246 -4 193 -8 231 -21 242 -12 9 -186 12 -801 10 -432
-1 -863 -5 -957 -8z m395 -306 c17 -12 21 -22 16 -41 -3 -14 -1 -31 6 -39 17
-21 -4 -62 -36 -70 -34 -8 -75 19 -75 51 0 13 4 26 9 29 4 3 6 16 4 30 -4 17
2 28 18 40 29 20 29 20 58 0z m927 -3 c35 -21 50 -61 34 -91 -7 -14 -7 -20 0
-20 5 0 10 -8 10 -17 0 -15 -9 -18 -53 -17 -74 1 -75 2 -97 24 -36 36 -24 102
25 128 29 16 46 14 81 -7z m-634 -18 c2 -20 9 -29 26 -31 19 -3 22 1 22 27 0
26 4 31 25 31 24 0 25 -2 25 -75 0 -73 -1 -75 -25 -75 -21 0 -25 5 -25 30 0
25 -4 30 -25 30 -21 0 -25 -5 -25 -30 0 -23 -4 -30 -20 -30 -18 0 -20 7 -20
75 0 67 2 75 19 75 14 0 21 -8 23 -27z m348 -20 l30 -47 0 47 c0 40 3 47 20
47 18 0 20 -7 20 -75 0 -68 -2 -75 -20 -75 -12 0 -30 16 -47 42 l-28 42 -3
-42 c-3 -34 -7 -42 -23 -42 -17 0 -19 7 -19 75 0 69 2 75 20 75 13 0 31 -16
50 -47z"/>
<path d="M7482 634 c-7 -8 -10 -19 -7 -24 3 -6 3 -16 -2 -22 -4 -7 -13 -33
-18 -58 -8 -35 -15 -46 -32 -48 -17 -3 -27 7 -46 45 l-25 48 -11 -43 c-7 -23
-9 -46 -6 -51 6 -11 -35 -2 -52 12 -9 7 -13 5 -13 -5 0 -22 33 -48 62 -48 27
0 38 15 38 53 1 18 3 16 15 -10 17 -39 61 -55 80 -29 11 14 14 15 25 1 7 -8
26 -15 41 -15 25 0 30 5 36 30 7 38 23 49 23 17 0 -32 22 -49 57 -46 63 5 81
0 85 -25 4 -22 1 -25 -26 -28 -30 -3 -32 -6 -48 -73 -10 -38 -22 -79 -28 -90
-8 -15 -6 -14 10 4 11 13 20 29 20 37 0 7 5 36 11 64 10 48 12 50 46 50 28 0
33 -3 29 -17 -3 -10 -10 -47 -17 -82 -17 -87 -48 -122 -115 -128 -40 -4 -54
-1 -76 17 -32 25 -34 48 -16 146 l11 64 35 0 c35 0 35 0 28 -37 -16 -83 -18
-121 -8 -127 11 -7 37 117 31 149 -4 16 -12 20 -49 20 l-45 0 -10 -50 -11 -49
-23 37 c-12 21 -33 42 -44 49 -18 9 -17 6 4 -14 53 -49 46 -134 -14 -184 l-32
-26 32 6 c26 4 35 1 43 -14 23 -44 -85 -58 -118 -15 -11 14 -30 25 -42 25 -12
0 -35 13 -51 29 -23 23 -29 38 -29 71 0 48 23 93 57 111 12 7 21 14 19 16 -9
9 -58 -31 -72 -58 -17 -34 -18 -106 -1 -136 14 -25 75 -73 92 -73 6 0 22 -11
34 -24 31 -33 64 -39 106 -22 37 16 45 39 25 77 -7 12 -7 25 -2 36 9 14 10 14
16 -5 19 -60 125 -84 180 -41 l26 20 0 -20 c0 -18 6 -21 43 -21 31 0 45 5 55
20 17 28 68 27 75 -1 5 -17 12 -20 54 -17 43 3 48 5 51 29 2 14 -8 72 -22 127
-15 55 -26 109 -26 120 0 11 -8 26 -17 33 -16 12 -17 12 -6 -2 28 -35 -23 -40
-56 -5 -19 20 -20 24 -6 29 8 4 35 4 58 1 30 -4 46 -2 54 7 14 18 33 109 23
109 -4 0 -10 -18 -14 -40 -5 -35 -10 -40 -32 -40 -25 0 -26 2 -20 43 3 23 7
52 10 65 4 17 0 22 -15 22 -11 0 -24 10 -29 23 -9 19 -10 19 -8 2 2 -11 -1
-26 -5 -32 -10 -16 0 -33 19 -33 16 0 17 -16 5 -75 -6 -27 -9 -32 -10 -16 -1
20 -4 22 -13 13 -17 -17 -47 -15 -54 3 -8 20 -68 20 -84 0 -7 -9 -23 -15 -34
-13 -18 3 -21 10 -21 55 0 29 3 53 8 53 4 0 6 13 5 30 -3 44 -11 27 -28 -58
-15 -72 -17 -77 -43 -80 -27 -3 -28 -2 -21 32 6 34 5 36 -19 36 -30 0 -36 -7
-39 -47 -2 -25 -5 -28 -28 -25 -25 3 -27 8 -26 48 1 24 5 44 9 44 5 0 5 9 2
20 -4 12 -1 28 7 37 7 10 8 14 1 10 -6 -4 -13 -3 -15 2 -1 5 -9 3 -16 -5z
m467 -349 c13 -52 25 -104 28 -115 5 -17 0 -20 -30 -20 -27 0 -37 5 -42 20 -9
29 -90 29 -105 0 -7 -14 -21 -20 -45 -20 l-34 0 67 115 c65 112 68 115 103
115 l35 0 23 -95z"/>
<path d="M8095 638 c-4 -10 1 -41 11 -70 9 -28 17 -68 18 -87 1 -30 5 -37 24
-39 38 -6 68 22 76 68 7 43 26 47 26 4 0 -68 99 -96 161 -45 l23 19 -44 -1
c-53 0 -89 5 -87 13 1 3 -4 19 -11 36 -11 26 -11 37 2 67 8 20 11 39 7 41 -11
7 -80 -95 -90 -131 -5 -18 -15 -29 -29 -31 -19 -3 -22 1 -22 30 0 44 -10 79
-21 72 -5 -3 -6 2 -3 10 3 9 1 16 -5 16 -6 0 -8 7 -4 17 4 10 2 14 -4 10 -6
-4 -13 -1 -16 5 -3 9 -7 8 -12 -4z"/>
<path d="M5155 626 c-32 -14 -65 -68 -46 -74 6 -2 8 -16 5 -31 -12 -56 88 -94
143 -56 13 9 27 34 33 57 15 53 -1 93 -42 107 -39 14 -56 13 -93 -3z"/>
<path d="M6231 578 c-19 -19 -23 -20 -46 -8 -19 10 -30 11 -50 2 -15 -7 -23
-16 -20 -22 3 -5 1 -19 -5 -30 -7 -14 -7 -20 0 -20 7 0 6 -6 -1 -18 -9 -14 -8
-30 4 -68 9 -27 21 -75 28 -106 6 -31 18 -59 26 -62 12 -5 13 0 8 25 -6 28 -5
30 17 27 25 -3 26 -11 13 -110 l-8 -57 43 -11 c23 -6 63 -11 89 -10 70 3 71 2
71 -30 0 -34 21 -46 96 -57 38 -5 44 -3 59 21 14 20 15 32 8 49 -10 22 -10 22
85 19 64 -2 97 0 102 8 5 9 17 9 46 0 58 -17 98 -10 102 18 2 12 5 22 6 22 2
0 24 -12 50 -26 54 -30 117 -35 162 -11 26 13 33 25 42 69 8 43 8 56 -4 69
-13 14 -13 18 1 29 24 20 18 44 -16 64 -18 11 -29 14 -25 8 4 -6 0 -22 -9 -36
-15 -23 -18 -24 -48 -11 -41 16 -74 5 -87 -31 -13 -34 -4 -63 23 -73 33 -12
54 -2 61 30 5 25 10 29 36 29 25 0 30 -4 26 -17 -2 -10 -7 -32 -11 -50 -5 -24
-14 -34 -37 -42 -54 -19 -103 -14 -137 15 -51 43 -50 114 2 174 12 14 18 22
14 18 -5 -3 -24 0 -42 8 -51 21 -96 18 -102 -6 -5 -17 -7 -18 -27 -5 -11 8
-41 17 -65 21 -51 8 -71 -9 -71 -60 0 -34 -14 -25 -23 14 -3 15 0 33 9 44 33
46 3 65 -114 72 -81 4 -90 -3 -72 -51 6 -15 9 -29 8 -31 -2 -1 -26 3 -54 9
l-50 12 -3 55 c-1 33 -8 59 -16 66 -8 6 -11 14 -7 18 4 4 -2 14 -12 22 -12 8
-15 14 -7 14 11 0 11 3 1 15 -18 21 -46 19 -69 -7z m81 -92 c4 -6 7 -30 6 -53
l-1 -42 -71 -3 c-70 -3 -71 -3 -77 -33 l-6 -30 -7 30 c-4 17 -12 40 -17 53
-17 42 -10 60 29 80 28 15 49 18 87 14 28 -3 53 -10 57 -16z m74 -122 c-3 -9
-6 -22 -6 -30 0 -9 -11 -14 -34 -14 -39 0 -39 0 -56 -97 l-13 -73 -34 0 c-38
0 -38 0 -18 90 19 85 19 80 -15 80 -25 0 -30 4 -30 23 0 13 3 27 7 30 3 4 51
7 106 7 86 0 98 -2 93 -16z m160 -39 c7 -27 20 -78 28 -113 l14 -62 -39 0
c-32 0 -39 3 -39 20 0 30 -83 29 -103 -1 -11 -15 -23 -20 -46 -17 l-32 3 67
113 c66 113 66 113 102 110 34 -3 37 -6 48 -53z m209 -8 c35 -62 39 -61 50 17
7 44 8 46 41 46 31 0 34 -3 29 -22 -3 -13 -13 -63 -23 -113 -17 -88 -18 -90
-48 -93 -28 -3 -33 2 -65 60 l-33 63 -14 -62 c-13 -60 -15 -63 -43 -63 -35 0
-35 0 -9 125 11 53 20 99 20 102 0 2 14 3 32 1 27 -3 36 -12 63 -61z"/>
<path d="M4595 541 c11 -5 22 -7 26 -5 3 1 5 -8 5 -21 0 -13 -4 -21 -8 -19 -5
3 -5 10 -2 16 4 7 2 8 -4 4 -6 -4 -8 -14 -5 -23 4 -9 2 -14 -3 -10 -6 3 -15
-2 -21 -12 -10 -16 -8 -16 28 2 78 38 157 -3 166 -86 5 -43 3 -49 -30 -82 -30
-30 -42 -35 -80 -35 -35 0 -53 6 -78 28 l-33 27 19 -27 c11 -15 24 -28 28 -28
5 0 6 -4 2 -9 -3 -5 0 -13 6 -17 8 -5 9 -3 4 7 -5 8 -4 10 0 6 20 -17 11 -33
-18 -35 -17 -2 -33 -5 -36 -7 -2 -3 85 -5 193 -5 l198 0 -5 28 c-9 47 12 117
49 160 l34 41 -20 33 c-11 18 -20 43 -20 56 l0 22 -207 -1 c-116 0 -199 -4
-188 -8z"/>
<path d="M13207 496 c-4 -9 -2 -18 4 -21 5 -4 7 -9 5 -13 -2 -4 15 -5 39 -4
41 4 43 3 47 -27 4 -31 4 -31 -39 -31 -24 0 -43 -4 -43 -10 0 -5 20 -10 45
-10 49 0 47 5 63 -122 l7 -56 29 23 29 23 -13 68 c-18 102 -19 106 -41 101
-23 -6 -24 2 -4 30 15 21 14 22 -39 37 -65 19 -69 19 -61 4 4 -7 0 -5 -8 5
-12 15 -15 15 -20 3z"/>
<path d="M10125 483 c-44 -11 -37 -23 13 -23 77 0 63 -20 -15 -22 l-68 -2 58
-3 c67 -5 77 -23 12 -23 -65 0 -55 -18 13 -23 55 -3 55 -3 -15 -5 -92 -3 -109
-22 -19 -22 37 0 66 -4 66 -10 0 -5 -8 -10 -19 -10 -17 0 -31 -25 -31 -57 0
-22 42 -14 66 12 13 14 32 25 43 25 11 0 28 -11 39 -25 18 -23 27 -25 97 -25
70 0 80 2 101 25 30 32 57 32 83 -2 12 -14 23 -24 25 -22 2 2 6 23 10 46 6 39
3 46 -30 83 -29 32 -43 40 -70 40 -30 0 -34 3 -34 25 l0 25 -152 -1 c-84 -1
-162 -3 -173 -6z"/>
<path d="M13114 479 c-4 -7 -3 -9 4 -5 6 3 13 2 17 -4 4 -6 -8 -10 -29 -10
-19 0 -37 -3 -39 -7 -3 -5 1 -30 9 -58 7 -27 16 -74 20 -103 7 -61 24 -82 63
-82 l28 0 -14 73 c-8 39 -22 80 -30 89 -11 12 -13 22 -6 30 13 18 10 81 -4 85
-6 2 -15 -1 -19 -8z"/>
<path d="M9120 449 c-19 -6 -45 -21 -58 -36 -13 -14 -42 -31 -65 -38 l-43 -13
2 32 c1 17 -1 21 -3 10 -2 -12 -17 -33 -32 -47 -20 -18 -30 -38 -36 -73 -4
-27 -13 -61 -21 -76 -31 -60 -134 -79 -179 -33 -32 31 -32 42 0 183 4 18 12
22 41 22 29 0 34 -3 30 -17 -14 -51 -27 -134 -21 -143 9 -14 51 -13 63 3 5 6
15 45 22 85 13 70 14 72 43 72 20 0 30 6 34 20 3 11 12 20 21 20 8 0 13 3 9 6
-8 8 -107 -25 -107 -36 0 -14 -41 -23 -53 -11 -14 14 -72 14 -99 0 -14 -8 -23
-8 -31 0 -27 27 -137 -2 -137 -36 0 -10 -4 -24 -9 -32 -5 -8 -7 4 -4 33 l6 46
-37 0 c-20 0 -50 -7 -66 -15 -27 -14 -30 -14 -30 0 0 19 -67 20 -91 2 -34 -26
-41 -54 -22 -89 l17 -33 8 40 c5 22 11 50 14 63 3 17 11 22 34 22 17 0 30 -3
30 -7 0 -5 -10 -57 -21 -116 l-22 -108 -30 3 c-25 3 -35 13 -63 62 -32 59 -33
59 -39 30 -21 -92 -20 -89 -53 -92 -30 -3 -32 -1 -27 20 3 13 13 63 23 113 17
88 18 90 48 93 25 2 33 -2 43 -24 6 -15 14 -24 17 -21 3 3 -2 17 -11 31 -21
31 -73 36 -97 9 -15 -16 -58 -200 -58 -244 0 -15 8 -19 38 -19 45 0 58 8 70
40 l9 25 17 -33 c14 -27 22 -32 52 -32 19 0 44 5 55 10 13 7 19 7 19 0 0 -14
73 -13 105 2 14 6 25 18 25 27 0 9 5 23 10 31 7 11 8 2 4 -27 l-7 -43 40 0
c46 0 103 18 103 32 0 5 12 0 26 -11 51 -40 180 -17 229 40 22 27 31 50 49
131 3 15 15 32 25 37 17 9 21 2 45 -65 17 -48 26 -91 24 -117 -4 -49 5 -53 88
-42 60 7 84 25 84 61 0 13 25 62 56 108 31 47 53 89 49 95 -3 6 -22 11 -42 11
-34 0 -35 1 -20 18 28 31 19 35 -14 8 -31 -26 -69 -35 -69 -16 0 6 11 22 25
35 26 27 20 29 -35 14z m-644 -114 l-7 -45 39 0 c39 0 40 0 46 45 7 44 8 45
43 45 31 0 35 -2 30 -22 -2 -13 -13 -65 -23 -115 l-18 -93 -34 0 -33 0 6 43 7
42 -39 -1 c-36 -1 -38 -3 -47 -43 -8 -38 -11 -41 -44 -41 -30 0 -34 2 -29 23
3 12 14 64 23 115 l18 92 34 0 34 0 -6 -45z m645 8 c18 -58 19 -58 51 -9 27
40 35 46 65 46 40 0 43 8 -36 -105 -23 -32 -41 -66 -41 -76 0 -35 -12 -49 -41
-49 -28 0 -29 2 -29 45 0 24 -11 74 -25 111 -14 36 -25 68 -25 70 0 2 15 4 34
4 31 0 36 -4 47 -37z"/>
<path d="M5147 408 c2 -5 0 -8 -6 -8 -16 0 -48 -70 -53 -117 -11 -89 85 -158
162 -118 29 15 40 35 19 35 -6 0 -19 -5 -31 -11 -11 -6 -34 -8 -52 -5 -33 7
-83 42 -73 52 3 4 20 -5 37 -20 38 -32 64 -33 106 -4 41 28 49 57 30 103 -9
20 -11 33 -6 30 6 -3 10 -2 10 2 0 15 -24 42 -40 45 -8 2 -21 9 -28 15 -14 13
-83 14 -75 1z m102 -62 c7 -8 16 -29 21 -46 8 -27 6 -38 -11 -61 -11 -15 -28
-30 -38 -34 -29 -9 -70 12 -81 40 -6 15 -14 23 -20 20 -15 -9 0 26 27 63 19
25 31 32 57 32 19 0 39 -6 45 -14z"/>
<path d="M5325 411 c-3 -5 4 -12 15 -16 31 -10 60 -76 60 -136 0 -50 -3 -55
-49 -100 -37 -36 -61 -49 -98 -58 -69 -14 -138 -3 -186 31 -24 17 -31 18 -38
7 -13 -21 26 -56 84 -75 58 -19 158 -14 205 10 38 20 85 74 101 117 7 18 18
44 23 56 7 14 7 33 -1 60 -8 29 -10 31 -6 8 6 -49 -12 -66 -20 -19 -14 76 -69
147 -90 115z"/>
<path d="M16869 400 c-9 -5 -22 -23 -29 -40 l-13 -30 -34 26 c-44 34 -60 35
-105 12 -41 -20 -45 -27 -26 -46 9 -9 8 -16 -5 -30 -21 -23 -21 -38 0 -50 14
-9 14 -11 -5 -21 -28 -15 -28 -17 5 -128 25 -82 31 -93 51 -93 27 0 26 -5 3
61 -10 31 -22 74 -25 96 l-7 41 48 16 c26 9 61 25 77 35 23 15 34 17 56 9 16
-5 52 -10 81 -11 49 -2 53 -4 60 -31 4 -16 8 -54 8 -85 1 -31 3 -65 5 -76 2
-11 5 -28 5 -37 1 -12 9 -18 27 -18 14 0 23 4 20 9 -3 5 -8 46 -11 92 -10 147
-15 171 -36 176 -14 4 -17 11 -13 28 4 16 -1 27 -16 38 -12 8 -17 18 -12 21 6
3 8 15 5 26 -4 16 -14 20 -52 20 -25 0 -53 -5 -62 -10z"/>
</g>
</svg>
