<svg width="61" height="33" viewBox="0 0 61 33" fill="none" xmlns="http://www.w3.org/2000/svg">
<path d="M0 32.647L-1.4392e-06 -3.8147e-05L60.2878 -4.076e-05L52.4166 16.3235L60.2878 32.647L0 32.647Z" fill="#FCAF17"/>
<path d="M22.6862 9.99394L19.7182 14.8939L16.7642 9.99394H15.0282V19.7939H16.6382V12.7939L19.6202 17.7359H19.8162L22.7982 12.8079V19.7939H24.4082V9.99394H22.6862ZM28.7981 11.8139H30.2541L31.7382 9.92394H29.9181L28.7981 11.8139ZM29.5682 19.9759C30.6042 19.9759 31.4722 19.6259 32.1862 18.9119C32.9001 18.1979 33.2642 17.3299 33.2642 16.2939C33.2642 15.3139 32.9421 14.4879 32.2981 13.7879C32.9982 13.5779 33.2642 13.0179 33.2642 12.0379V11.7999H31.9902V12.0379C31.9902 12.5699 31.9061 12.7939 31.3881 12.7939H30.7721C30.3941 12.6679 30.0021 12.6119 29.5682 12.6119C28.5461 12.6119 27.6641 12.9619 26.9501 13.6759C26.2361 14.3899 25.8721 15.2579 25.8721 16.2939C25.8721 17.3299 26.2361 18.1979 26.9501 18.9119C27.6641 19.6259 28.5461 19.9759 29.5682 19.9759ZM28.0141 17.8759C27.5941 17.4559 27.3841 16.9239 27.3841 16.2939C27.3841 15.6639 27.5941 15.1319 28.0141 14.7119C28.4341 14.2919 28.9522 14.0819 29.5682 14.0819C30.1842 14.0819 30.7022 14.2919 31.1222 14.7119C31.5422 15.1319 31.7521 15.6639 31.7521 16.2939C31.7521 16.9239 31.5422 17.4559 31.1222 17.8759C30.7022 18.2959 30.1842 18.5059 29.5682 18.5059C28.9522 18.5059 28.4341 18.2959 28.0141 17.8759ZM36.0453 11.7019C36.4233 11.3099 36.4233 10.7499 36.0593 10.3719C35.6813 9.99394 35.0933 9.99394 34.7153 10.3719C34.3513 10.7499 34.3513 11.3099 34.7153 11.7019C35.1073 12.0659 35.6673 12.0659 36.0453 11.7019ZM36.1433 19.7939V12.7939H34.6313V19.7939H36.1433Z" fill="#F8F8F8"/>
</svg>
