<svg width="24" height="24" viewBox="0 0 24 24" fill="none" xmlns="http://www.w3.org/2000/svg">
<path fill-rule="evenodd" clip-rule="evenodd" d="M11.1236 3.49311C9.09982 3.49311 7.15897 4.29708 5.72797 5.72814C4.29697 7.15921 3.49304 9.10015 3.49304 11.124C3.49304 13.1478 4.29697 15.0888 5.72797 16.5198C7.15897 17.9509 9.09982 18.7549 11.1236 18.7549C13.1473 18.7549 15.0881 17.9509 16.5191 16.5198C17.9501 15.0888 18.7541 13.1478 18.7541 11.124C18.7541 9.10015 17.9501 7.15921 16.5191 5.72814C15.0881 4.29708 13.1473 3.49311 11.1236 3.49311ZM4.67223 4.67235C6.38323 2.96127 8.70384 2 11.1236 2C13.5433 2 15.8639 2.96127 17.5749 4.67235C19.2859 6.38343 20.2471 8.70415 20.2471 11.124C20.2471 13.2921 19.4755 15.3806 18.0843 17.0223L22 20.9452L20.9433 22L17.0292 18.0787C15.3863 19.4739 13.2949 20.248 11.1236 20.248C8.70384 20.248 6.38323 19.2867 4.67223 17.5756C2.96123 15.8645 2 13.5438 2 11.124C2 8.70415 2.96123 6.38343 4.67223 4.67235Z" fill="white"/>
</svg>
